<svg xmlns="http://www.w3.org/2000/svg" viewBox="0 0 660 164" width="660" height="164" role="img" aria-labelledby="title desc">
<style>
svg{font-family:'JetBrains Mono',ui-monospace,SFMono-Regular,Menlo,Consolas,monospace;font-size:12px}
text{fill:#101713}.d{fill:#536b5e}.f{fill:#8ca396}.a{fill:#08763c}.h{fill:#8a5a00}
.k{font-size:10px;letter-spacing:.08em}.s{font-size:11px}.b{font-weight:700}
.box{fill:#f1f6f3;stroke:#cbd8d0}.boxa{fill:#d8f8e5;stroke:#08763c}.boxh{fill:#fcf5e5;stroke:#dcbd7a}
.ln{fill:none;stroke:#8ca396;stroke-width:1.25}.lna{fill:none;stroke:#08763c;stroke-width:1.5}.lnh{fill:none;stroke:#8a5a00;stroke-width:1.5}
.rule{stroke:#cbd8d0;stroke-dasharray:2 4}.dash{stroke-dasharray:4 4}
.open{fill:none;stroke:#8ca396;stroke-dasharray:4 3}.opena{fill:none;stroke:#08763c;stroke-dasharray:4 3}
.mk{fill:#8ca396}.mka{fill:#08763c}.mkh{fill:#8a5a00}.hatch{stroke:#dcbd7a;stroke-width:3}
</style>
  <title id="title">Coverage and finality are separate</title>
  <desc id="desc">A processor requested blocks 100 to 140. Its coverage is 100 to 112 and 120 to 140, so blocks 113 to 119 are missing and coverage is not complete. Independently, the chain is finalized through block 128 and blocks 129 to 140 are included but not yet finalized.</desc>
  <defs>
    <pattern id="gap" width="8" height="8" patternUnits="userSpaceOnUse" patternTransform="rotate(45)"><line class="hatch" x1="0" y1="0" x2="0" y2="8"/></pattern>
  </defs>

  <!-- block b sits at x = 140 + (b - 100) * 12.5 -->
  <line class="rule" x1="290" y1="14" x2="290" y2="150"/>
  <line class="rule" x1="390" y1="14" x2="390" y2="150"/>

  <text x="24" y="37">requested</text>
  <rect class="open" x="140" y="20" width="500" height="26" rx="5"/>
  <text class="s d" x="150" y="37">100</text>
  <text class="s d" x="630" y="37" text-anchor="end">140</text>

  <text x="24" y="79">coverage</text>
  <text class="s h" x="24" y="96">complete: false</text>
  <rect class="box" x="140" y="62" width="150" height="26" rx="5"/>
  <text class="s" x="150" y="79">100</text>
  <text class="s" x="280" y="79" text-anchor="end">112</text>
  <rect class="boxh" x="290" y="62" width="100" height="26"/>
  <rect x="290" y="62" width="100" height="26" fill="url(#gap)"/>
  <text class="s h b" x="340" y="79" text-anchor="middle">113–119</text>
  <rect class="box" x="390" y="62" width="250" height="26" rx="5"/>
  <text class="s" x="400" y="79">120</text>
  <text class="s" x="630" y="79" text-anchor="end">140</text>

  <text x="24" y="131">finality</text>
  <rect class="boxa" x="140" y="114" width="350" height="26" rx="5"/>
  <text class="s" x="150" y="131">100</text>
  <text class="s a b" x="315" y="131" text-anchor="middle">finalized</text>
  <text class="s" x="480" y="131" text-anchor="end">128</text>
  <rect class="opena" x="502" y="114" width="138" height="26" rx="5"/>
  <text class="s" x="512" y="131">129</text>
  <text class="s a" x="571" y="131" text-anchor="middle">included</text>
  <text class="s" x="630" y="131" text-anchor="end">140</text>
</svg>
